<svg width="161" height="32" viewBox="0 0 161 32" fill="none" xmlns="http://www.w3.org/2000/svg">
<path d="M29.7479 25.333L30.5163 24.3465L23.8657 18.3123L23.0471 19.4018C21.5805 21.3536 19.5674 22.9532 16.3583 22.9532C13.8538 22.9532 12.0754 22.045 10.9196 20.778C9.74802 19.4937 9.14325 17.7606 9.14325 16C9.14325 14.2169 9.74982 12.4739 10.921 11.186C12.0764 9.91553 13.8539 9.00747 16.3583 9.00747C18.8491 9.00747 21.563 10.5241 23.0508 12.485L23.8705 13.5653L30.4955 7.55433L29.7659 6.57252C26.6641 2.39844 21.7378 0 16.0934 0C8.82244 0 0 5.36472 0 16C0 26.6316 8.78038 32 16.0556 32C21.6996 32 26.598 29.3767 29.7479 25.333Z" fill="#DB648F"/>
<path d="M47.7841 0L28.9379 31.9479H38.9185L47.7476 16.9614L56.6091 31.9479H66.587L47.7841 0Z" fill="#DB648F"/>
<path d="M67.6095 0V32H98.2574L83.2627 16L98.2574 0H67.6095Z" fill="#DB648F"/>
<ellipse cx="3.94608" cy="4.12017" rx="3.94608" ry="4.12017" transform="matrix(1 0 0 -1 79.4554 20.1885)" fill="#EDBDCE"/>
<path d="M99.3096 0V32H129.958L114.963 16L129.958 0H99.3096Z" fill="#DB648F"/>
<ellipse cx="3.94608" cy="4.12017" rx="3.94608" ry="4.12017" transform="matrix(1 0 0 -1 111.156 20.1885)" fill="#EDBDCE"/>
<path d="M161 18.0814V0H151.877V18.0814C151.877 19.6537 151.214 20.7995 150.175 21.5942C149.099 22.4175 147.591 22.8749 146.005 22.8749C144.419 22.8749 142.911 22.4175 141.835 21.5942C140.796 20.7995 140.133 19.6537 140.133 18.0814V0H131.01V18.0814C131.01 22.6977 132.92 26.2261 135.789 28.5673C138.625 30.8807 142.345 32 146.005 32C149.665 32 153.385 30.8807 156.22 28.5673C159.09 26.2261 161 22.6977 161 18.0814Z" fill="#DB648F"/>
</svg>
